# File created by Blade
# Date/Time:  Wed Jan 21 14:55:15 2015
# Frame Rate: 120.000 fps
#------------------------------------------------------
:FULLY-SPECIFIED
:DEGREES
1331
root 20.773392 35.392875 -23.977593 -173.010452 0.182325 -178.761672
Spine -18.298437 -0.371465 0.931626
Head 12.741895 -2.203903 0.115906
LeftShoulder -15.174514 -29.049139 18.139879
LeftArm 7.903706 2.502634 -11.659070
LeftForeArm 6.350461 0.000000 -2.617504
LeftHand -10.205353 -0.000000 -2.434474
LeftHandThumb1 -26.253704 0.000000 33.147579
RightShoulder -13.581877 -6.012342 -7.688269
RightArm 12.937173 39.469183 17.843579
RightForeArm -33.951710 0.000000 6.066392
RightHand -10.355537 0.000000 4.061967
RightHandThumb1 -24.326973 -0.000000 -32.862282
LeftUpLeg 2.970096 14.397673 3.041235
LeftLeg -6.837424 -0.000000 0.000000
LeftFoot -20.743400 25.745436 -14.752407
LeftToeBase 26.130560 -0.000000 -0.000000
RightUpLeg 0.406370 -11.789095 -2.368324
RightLeg -3.853166 -0.000000 0.000000
RightFoot -19.354062 -21.821546 17.639238
RightToeBase 24.789806 -0.000000 -0.000000
1332
root 20.774995 35.392665 -23.977370 -173.008871 0.187691 -178.759657
Spine -18.287850 -0.370819 0.936657
Head 12.724915 -2.178754 0.141113
LeftShoulder -15.190955 -29.009868 18.130185
LeftArm 7.911566 2.516776 -11.692750
LeftForeArm 6.367693 0.000000 -2.593191
LeftHand -10.224347 -0.000000 -2.367000
LeftHandThumb1 -26.253704 0.000000 33.147579
RightShoulder -13.588401 -6.026018 -7.679039
RightArm 12.931891 39.430776 17.862359
RightForeArm -33.959007 -0.000000 6.114389
RightHand -10.370612 -0.000000 4.034327
RightHandThumb1 -24.326973 -0.000000 -32.862282
LeftUpLeg 2.971176 14.386508 3.042889
LeftLeg -6.844431 -0.000000 0.000000
LeftFoot -20.742217 25.767527 -14.764252
LeftToeBase 26.107403 -0.000000 -0.000000
RightUpLeg 0.406621 -11.782764 -2.364210
RightLeg -3.860601 -0.000000 0.000000
RightFoot -19.352181 -21.819781 17.651344
RightToeBase 24.716717 -0.000000 -0.000000
1333
root 20.776157 35.392565 -23.977309 -173.011870 0.190967 -178.761093
Spine -18.271939 -0.382374 0.941847
Head 12.727607 -2.138345 0.146089
LeftShoulder -15.217931 -28.963129 18.131711
LeftArm 7.898333 2.589377 -11.728164
LeftForeArm 6.303890 0.000000 -2.543043
LeftHand -10.200017 -0.000000 -2.388785
LeftHandThumb1 -26.253704 0.000000 33.147579
RightShoulder -13.582510 -6.036456 -7.665557
RightArm 12.922693 39.355403 17.873066
RightForeArm -33.991783 -0.000000 6.142723
RightHand -10.357929 -0.000000 3.933433
RightHandThumb1 -24.326973 -0.000000 -32.862282
LeftUpLeg 2.968569 14.386881 3.043434
LeftLeg -6.830664 -0.000000 0.000000
LeftFoot -20.752550 25.772494 -14.771204
LeftToeBase 26.100170 -0.000000 -0.000000
RightUpLeg 0.410374 -11.775141 -2.364447
RightLeg -3.862817 -0.000000 0.000000
RightFoot -19.349988 -21.826444 17.654329
RightToeBase 24.729811 -0.000000 -0.000000
1334
root 20.776892 35.392492 -23.977645 -173.017170 0.194548 -178.759118
Spine -18.254266 -0.376185 0.949307
Head 12.748727 -2.143622 0.119160
LeftShoulder -15.219397 -28.936376 18.118277
LeftArm 7.860921 2.643182 -11.771283
LeftForeArm 6.249410 -0.000000 -2.476102
LeftHand -10.190027 0.000000 -2.397554
LeftHandThumb1 -26.253704 0.000000 33.147579
RightShoulder -13.593001 -6.073457 -7.655035
RightArm 12.911497 39.335876 17.911126
RightForeArm -34.042991 -0.000000 6.207438
RightHand -10.365497 0.000000 3.842704
RightHandThumb1 -24.326973 -0.000000 -32.862282
LeftUpLeg 2.975522 14.388867 3.047785
LeftLeg -6.833141 -0.000000 0.000000
LeftFoot -20.750734 25.780430 -14.750732
LeftToeBase 26.138201 -0.000000 -0.000000
RightUpLeg 0.417002 -11.785868 -2.362747
RightLeg -3.865737 -0.000000 0.000000
RightFoot -19.344422 -21.820828 17.628392
RightToeBase 24.765519 -0.000000 -0.000000
1335
root 20.778821 35.392536 -23.977107 -173.021259 0.199660 -178.756781
Spine -18.228462 -0.377950 0.956637
Head 12.712985 -2.103579 0.145678
LeftShoulder -15.231770 -28.894392 18.101548
LeftArm 7.819672 2.739568 -11.813830
LeftForeArm 6.213251 -0.000000 -2.383127
LeftHand -10.198902 -0.000000 -2.304351
LeftHandThumb1 -26.253704 0.000000 33.147579
RightShoulder -13.603329 -6.074748 -7.638730
RightArm 12.892443 39.276828 17.940145
RightForeArm -34.056579 0.000000 6.282428
RightHand -10.369029 -0.000000 3.747927
RightHandThumb1 -24.326973 -0.000000 -32.862282
LeftUpLeg 2.974613 14.410910 3.054156
LeftLeg -6.825408 -0.000000 0.000000
LeftFoot -20.743225 25.769481 -14.734509
LeftToeBase 26.157810 -0.000000 -0.000000
RightUpLeg 0.423166 -11.777172 -2.359017
RightLeg -3.873009 -0.000000 0.000000
RightFoot -19.330790 -21.816665 17.640466
RightToeBase 24.658380 -0.000000 -0.000000
1336
root 20.779595 35.392433 -23.976672 -173.025173 0.201256 -178.757634
Spine -18.207787 -0.371350 0.961184
Head 12.709116 -2.081746 0.147492
LeftShoulder -15.232740 -28.799075 18.039999
LeftArm 7.815779 2.725728 -11.852867
LeftForeArm 6.171274 0.000000 -2.314622
LeftHand -10.214992 -0.000000 -2.237661
LeftHandThumb1 -26.253704 0.000000 33.147579
RightShoulder -13.600169 -6.089274 -7.621504
RightArm 12.824286 39.229975 17.951667
RightForeArm -34.001805 -0.000000 6.389067
RightHand -10.428513 -0.000000 3.661956
RightHandThumb1 -24.326973 -0.000000 -32.862282
LeftUpLeg 2.978271 14.404055 3.054319
LeftLeg -6.825068 -0.000000 0.000000
LeftFoot -20.747604 25.781420 -14.742951
LeftToeBase 26.121209 -0.000000 -0.000000
RightUpLeg 0.429520 -11.766758 -2.358293
RightLeg -3.879673 -0.000000 0.000000
RightFoot -19.333884 -21.830449 17.610820
RightToeBase 24.768192 -0.000000 -0.000000
